OpenSim_Sub02_EMGStiffKnee_GRF.mot
version=1
nRows=35
nColumns=19
inDegrees=no
endheader
time	lFx	lFy	lFz	lCOPx	lCOPy	lCOPz	rFx	rFy	rFz	rCOPx	rCOPy	rCOPz	lMx	lMy	lMz	rMx	rMy	rMz
0	-1.32680544	244.03726387	21.88502657	0.63613672	0	-0.64888401	-2.69563563	300.21914703	-25.18776759	0.68239254	0	-0.38212671	0	0.23683065	0	0	-0.18188138	0
0.01000000	-1.71268743	244.32791328	21.81352507	0.63640976	0	-0.64895615	-2.49156346	299.87663195	-25.17247127	0.68223141	0	-0.38246358	0	0.29700252	0	0	-0.01038022	0.00000000
0.02000000	-1.93337083	244.45723681	21.76998864	0.63668575	0	-0.64894767	-2.37977666	299.57611257	-25.16412588	0.68218911	0	-0.38265861	0	0.31638608	0	0	0.08067477	0
0.03000000	-2.02945952	244.55106946	21.76339680	0.63692368	0	-0.64892725	-2.35343100	299.29570632	-25.16733551	0.68204013	0	-0.38273906	0	0.31773781	0	0	0.11400017	0
0.04000000	-2.05694601	244.72717733	21.78168472	0.63707582	0	-0.64893579	-2.37033405	299.05125989	-25.15943718	0.68186355	0	-0.38279411	0	0.32357909	0	0	0.11129458	0.00000000
0.05000000	-2.06073780	244.99271837	21.81654240	0.63712454	0	-0.64892963	-2.36748655	298.88338134	-25.11447619	0.68181069	0	-0.38283400	0	0.33511542	0	0	0.08430185	0
0.06000000	-2.08574265	245.27708910	21.84803647	0.63716383	0	-0.64889794	-2.34147227	298.71587065	-25.04165577	0.68175251	0	-0.38289508	0	0.35384884	0	0	0.04600151	0
0.07000000	-2.11663662	245.49098977	21.87331210	0.63726580	0	-0.64887090	-2.30601661	298.51837646	-24.94753073	0.68153651	0	-0.38298335	0	0.36984814	0	0	0.01459071	-0.00000000
0.08000000	-2.14730855	245.64894707	21.91261477	0.63728351	0	-0.64883197	-2.26285157	298.36145424	-24.83976327	0.68123902	0	-0.38306220	0	0.37204529	0	0	0.00399879	0.00000000
0.09000000	-2.18217741	245.79930670	21.95826606	0.63716983	0	-0.64878386	-2.21416308	298.20817712	-24.72755437	0.68097306	0	-0.38310989	0	0.36531807	0	0	0.01356719	0.00000000
0.10000000	-2.20564200	245.94945754	21.99200820	0.63704996	0	-0.64877551	-2.16269265	298.03044053	-24.60943372	0.68077976	0	-0.38313881	0	0.34755852	0	0	0.04378961	-0.00000000
0.11000000	-2.20507664	246.11900489	22.01896171	0.63705191	0	-0.64883604	-2.11087891	297.82272445	-24.49398184	0.68063190	0	-0.38321924	0	0.31448479	0	0	0.07849087	0
0.12000000	-2.19534534	246.24817171	22.02880284	0.63711587	0	-0.64891832	-2.06529426	297.58894112	-24.39647950	0.68052763	0	-0.38334143	0	0.29193331	0	0	0.09801048	0
0.13000000	-2.20486848	246.33698436	22.03957156	0.63721579	0	-0.64897647	-2.04570397	297.36671321	-24.34976120	0.68038795	0	-0.38343916	0	0.29837184	0	0	0.09375797	0.00000000
0.14000000	-2.22703740	246.41868961	22.05477054	0.63728569	0	-0.64898970	-2.05432391	297.13381135	-24.35988318	0.68010696	0	-0.38349763	0	0.32283724	0	0	0.08866005	0
0.15000000	-2.23009512	246.47483727	22.05586286	0.63736775	0	-0.64895345	-2.06050222	296.94085389	-24.40336577	0.67976289	0	-0.38356120	0	0.34580140	0	0	0.09798117	0
0.16000000	-2.21381124	246.52523693	22.04532774	0.63738875	0	-0.64890761	-2.01321219	296.88969640	-24.42155108	0.67967774	0	-0.38364689	0	0.36216884	0	0	0.10302059	0
0.17000000	-2.18266290	246.60921493	22.04760147	0.63728549	0	-0.64885246	-1.91364875	296.98682754	-24.40430736	0.67988212	0	-0.38370324	0	0.35979703	0	0	0.08708955	0
0.18000000	-2.14599525	246.73006823	22.05345648	0.63709555	0	-0.64879344	-1.81512858	297.14599785	-24.35560498	0.68009920	0	-0.38371793	0	0.34129394	0	0	0.05230884	0
0.19000000	-2.12064302	246.89100635	22.06566173	0.63700881	0	-0.64874961	-1.75482130	297.23755775	-24.28359401	0.68010939	0	-0.38370698	0	0.33225791	0	0	0.02238701	0
0.20000000	-2.10592409	247.06692447	22.08599477	0.63707730	0	-0.64872907	-1.72568528	297.20528087	-24.22948622	0.67985691	0	-0.38371632	0	0.34301387	0	0	0.02117167	0
0.21000000	-2.09498324	247.22022515	22.11048203	0.63727584	0	-0.64873717	-1.70925674	297.05397335	-24.20584412	0.67951991	0	-0.38382037	0	0.36145084	0	0	0.04210292	0
0.22000000	-2.07946046	247.35482973	22.14498423	0.63753676	0	-0.64878309	-1.69702677	296.87176166	-24.17126614	0.67921181	0	-0.38395801	0	0.36007803	0	0	0.07091313	0
0.23000000	-2.04976322	247.47967685	22.18256775	0.63775536	0	-0.64886681	-1.67342728	296.76157659	-24.11195267	0.67902035	0	-0.38401065	0	0.33868112	0	0	0.08776596	0
0.24000000	-2.02594140	247.54189821	22.20469261	0.63784750	0	-0.64891891	-1.63568569	296.68765323	-24.05506097	0.67894032	0	-0.38401236	0	0.32067890	0	0	0.08346110	0
0.25000000	-2.02787093	247.56523955	22.21425938	0.63785914	0	-0.64895311	-1.58660044	296.53479344	-24.01182121	0.67881941	0	-0.38408972	0	0.31701304	0	0	0.08879200	0
0.26000000	-2.03105237	247.59980025	22.22330221	0.63781291	0	-0.64897972	-1.52936531	296.29003697	-23.98254433	0.67860489	0	-0.38427181	0	0.32119521	0	0	0.10237465	-0.00000000
0.27000000	-2.02557549	247.65624994	22.23129536	0.63774925	0	-0.64897375	-1.46215945	296.00024651	-23.95198730	0.67815488	0	-0.38450494	0	0.32537508	0	0	0.11668628	0
0.28000000	-2.02208841	247.72775500	22.24101603	0.63769570	0	-0.64891760	-1.38870239	295.78647725	-23.91197401	0.67758532	0	-0.38472155	0	0.33499116	0	0	0.13588898	0
0.29000000	-2.01673227	247.77322588	22.24813116	0.63764567	0	-0.64883739	-1.30912280	295.78714259	-23.86294314	0.67716143	0	-0.38482129	0	0.34941904	0	0	0.14965258	0
0.30000000	-2.00634476	247.75259906	22.23606576	0.63759722	0	-0.64879294	-1.25131671	296.04249939	-23.82618400	0.67696686	0	-0.38481574	0	0.36232764	0	0	0.15083959	0
0.31000000	-1.98634713	247.65602236	22.21998359	0.63751102	0	-0.64875705	-1.23281539	296.48730022	-23.81274809	0.67701802	0	-0.38478073	0	0.35825931	0	0	0.14946640	0
0.32000000	-1.97552363	247.50111098	22.20429342	0.63727384	0	-0.64874026	-1.25385288	296.98359200	-23.83324913	0.67716424	0	-0.38474361	0	0.34346033	0	0	0.14231398	0
0.33000000	-1.97479613	247.26498405	22.19332255	0.63698851	0	-0.64875374	-1.29844425	297.39625680	-23.89746474	0.67732151	0	-0.38467212	0	0.33240110	0	0	0.13738610	-0.00000000
0.34000000	-1.97328300	246.96765347	22.19961214	0.63680491	0	-0.64872878	-1.34493826	297.63291473	-24.01224817	0.67748643	0	-0.38456100	0	0.33323178	0	0	0.14010643	-0.00000000
